<?xml version="1.0" standalone="no"?>
<!DOCTYPE svg PUBLIC "-//W3C//DTD SVG 20010904//EN"
        "http://www.w3.org/TR/2001/REC-SVG-20010904/DTD/svg10.dtd">
<svg version="1.0" xmlns="http://www.w3.org/2000/svg"
     width="1024.000000pt" height="1024.000000pt" viewBox="0 0 1024.000000 1024.000000"
     preserveAspectRatio="xMidYMid meet">
    <g transform="translate(0.000000,1024.000000) scale(0.100000,-0.100000)"
       fill="#000000" stroke="none">
        <path d="M0 5120 l0 -5120 5120 0 5120 0 0 5120 0 5120 -5120 0 -5120 0 0
-5120z m8270 3963 c401 -350 704 -622 702 -630 -2 -7 -192 -509 -423 -1115
-366 -961 -418 -1103 -406 -1117 15 -16 1163 -1437 1179 -1457 5 -8 -293 -792
-803 -2110 -446 -1155 -812 -2100 -814 -2102 -6 -6 -5150 160 -5156 167 -3 3
-22 1043 -41 2309 l-34 2304 -457 450 c-251 247 -457 454 -457 459 0 5 205
469 455 1030 251 562 455 1025 453 1029 -2 4 -1466 1326 -1547 1396 -2 2 1492
4 3320 4 l3324 0 705 -617z"/>
        <path d="M4530 7928 c-1 -115 63 -1895 68 -1909 6 -16 313 324 1675 1852 l88
99 -915 0 -916 0 0 -42z"/>
        <path d="M4530 4096 l0 -1486 563 0 562 0 665 1430 c366 787 666 1436 668
1443 2 10 -246 20 -1165 50 -642 21 -1196 40 -1230 43 l-63 6 0 -1486z"/>
    </g>
</svg>
